<mxfile host="65bd71144e">
    <diagram id="4Tezj9C-m6Bj4EHzITif" name="Page-1">
        <mxGraphModel dx="823" dy="743" grid="1" gridSize="10" guides="1" tooltips="1" connect="1" arrows="1" fold="1" page="1" pageScale="1" pageWidth="850" pageHeight="1100" math="0" shadow="0">
            <root>
                <mxCell id="0"/>
                <mxCell id="1" parent="0"/>
                <mxCell id="5" style="edgeStyle=none;html=1;" parent="1" source="40" target="4" edge="1">
                    <mxGeometry relative="1" as="geometry">
                        <mxPoint x="110" y="200" as="sourcePoint"/>
                    </mxGeometry>
                </mxCell>
                <mxCell id="6" style="edgeStyle=none;html=1;" parent="1" source="4" target="42" edge="1">
                    <mxGeometry relative="1" as="geometry">
                        <mxPoint x="110" y="360" as="targetPoint"/>
                    </mxGeometry>
                </mxCell>
                <mxCell id="4" value="str.length() &amp;gt; 0 ?" style="rhombus;whiteSpace=wrap;html=1;" parent="1" vertex="1">
                    <mxGeometry x="40" y="240" width="140" height="80" as="geometry"/>
                </mxCell>
                <mxCell id="7" value="true" style="text;html=1;align=center;verticalAlign=middle;resizable=0;points=[];autosize=1;strokeColor=none;fillColor=none;" parent="1" vertex="1">
                    <mxGeometry x="110" y="320" width="40" height="30" as="geometry"/>
                </mxCell>
                <mxCell id="9" style="edgeStyle=none;html=1;" parent="1" target="49" edge="1">
                    <mxGeometry relative="1" as="geometry">
                        <mxPoint x="230" y="400" as="targetPoint"/>
                        <mxPoint x="150" y="400" as="sourcePoint"/>
                    </mxGeometry>
                </mxCell>
                <mxCell id="13" style="edgeStyle=none;html=1;" parent="1" source="49" target="12" edge="1">
                    <mxGeometry relative="1" as="geometry">
                        <mxPoint x="320" y="430" as="sourcePoint"/>
                    </mxGeometry>
                </mxCell>
                <mxCell id="16" style="edgeStyle=none;html=1;" parent="1" source="12" target="44" edge="1">
                    <mxGeometry relative="1" as="geometry">
                        <mxPoint x="320" y="630" as="targetPoint"/>
                    </mxGeometry>
                </mxCell>
                <mxCell id="12" value="str.length() &amp;gt; 0 ?" style="rhombus;whiteSpace=wrap;html=1;" parent="1" vertex="1">
                    <mxGeometry x="250" y="500" width="140" height="80" as="geometry"/>
                </mxCell>
                <mxCell id="14" value="true" style="text;html=1;align=center;verticalAlign=middle;resizable=0;points=[];autosize=1;strokeColor=none;fillColor=none;" parent="1" vertex="1">
                    <mxGeometry x="320" y="580" width="40" height="30" as="geometry"/>
                </mxCell>
                <mxCell id="18" style="edgeStyle=none;html=1;entryX=0;entryY=0.5;entryDx=0;entryDy=0;" parent="1" edge="1">
                    <mxGeometry relative="1" as="geometry">
                        <mxPoint x="360" y="670" as="sourcePoint"/>
                        <mxPoint x="440" y="670" as="targetPoint"/>
                    </mxGeometry>
                </mxCell>
                <mxCell id="20" style="edgeStyle=none;html=1;" parent="1" target="19" edge="1">
                    <mxGeometry relative="1" as="geometry">
                        <mxPoint x="530" y="700" as="sourcePoint"/>
                    </mxGeometry>
                </mxCell>
                <mxCell id="22" style="edgeStyle=none;html=1;" parent="1" source="19" target="52" edge="1">
                    <mxGeometry relative="1" as="geometry">
                        <mxPoint x="530" y="870" as="targetPoint"/>
                    </mxGeometry>
                </mxCell>
                <mxCell id="19" value="str.length() &amp;gt; 0 ?" style="rhombus;whiteSpace=wrap;html=1;" parent="1" vertex="1">
                    <mxGeometry x="460" y="760" width="140" height="80" as="geometry"/>
                </mxCell>
                <mxCell id="25" style="edgeStyle=none;html=1;" parent="1" source="52" edge="1">
                    <mxGeometry relative="1" as="geometry">
                        <mxPoint x="570.0000000000032" y="910" as="sourcePoint"/>
                        <mxPoint x="620" y="910" as="targetPoint"/>
                    </mxGeometry>
                </mxCell>
                <mxCell id="27" style="edgeStyle=none;html=1;" parent="1" source="51" target="26" edge="1">
                    <mxGeometry relative="1" as="geometry">
                        <mxPoint x="693.3333333333333" y="940" as="sourcePoint"/>
                        <mxPoint x="660" y="1000" as="targetPoint"/>
                    </mxGeometry>
                </mxCell>
                <mxCell id="30" style="edgeStyle=none;html=1;" parent="1" source="26" target="53" edge="1">
                    <mxGeometry relative="1" as="geometry">
                        <mxPoint x="530" y="1020" as="targetPoint"/>
                    </mxGeometry>
                </mxCell>
                <mxCell id="26" value="str.length() &amp;gt; 0 ?" style="rhombus;whiteSpace=wrap;html=1;" parent="1" vertex="1">
                    <mxGeometry x="640" y="980" width="140" height="80" as="geometry"/>
                </mxCell>
                <mxCell id="37" value="This function prints the given string reversed" style="text;html=1;align=center;verticalAlign=middle;resizable=0;points=[];autosize=1;strokeColor=none;fillColor=none;" parent="1" vertex="1">
                    <mxGeometry x="50" y="780" width="260" height="30" as="geometry"/>
                </mxCell>
                <mxCell id="39" style="edgeStyle=none;html=1;" edge="1" parent="1" source="38" target="40">
                    <mxGeometry relative="1" as="geometry">
                        <mxPoint x="110" y="140" as="targetPoint"/>
                    </mxGeometry>
                </mxCell>
                <mxCell id="38" value="Start" style="ellipse;whiteSpace=wrap;html=1;" vertex="1" parent="1">
                    <mxGeometry x="47.5" y="20" width="125" height="80" as="geometry"/>
                </mxCell>
                <mxCell id="40" value="myStringFunction(str: &quot;Adi&quot;)" style="whiteSpace=wrap;html=1;" vertex="1" parent="1">
                    <mxGeometry x="20" y="140" width="180" height="60" as="geometry"/>
                </mxCell>
                <mxCell id="42" value="ch = 'A'" style="whiteSpace=wrap;html=1;" vertex="1" parent="1">
                    <mxGeometry x="50" y="370" width="120" height="60" as="geometry"/>
                </mxCell>
                <mxCell id="60" style="edgeStyle=none;html=1;" edge="1" parent="1" source="43" target="59">
                    <mxGeometry relative="1" as="geometry"/>
                </mxCell>
                <mxCell id="43" value="prints: 'A'" style="shape=parallelogram;perimeter=parallelogramPerimeter;whiteSpace=wrap;html=1;fixedSize=1;" vertex="1" parent="1">
                    <mxGeometry x="50" y="990" width="120" height="60" as="geometry"/>
                </mxCell>
                <mxCell id="45" value="" style="edgeStyle=none;html=1;" edge="1" parent="1" source="44">
                    <mxGeometry relative="1" as="geometry">
                        <mxPoint x="440" y="670" as="targetPoint"/>
                    </mxGeometry>
                </mxCell>
                <mxCell id="44" value="ch = 'd'" style="whiteSpace=wrap;html=1;" vertex="1" parent="1">
                    <mxGeometry x="260" y="640" width="120" height="60" as="geometry"/>
                </mxCell>
                <mxCell id="55" style="edgeStyle=none;html=1;" edge="1" parent="1" source="48" target="43">
                    <mxGeometry relative="1" as="geometry"/>
                </mxCell>
                <mxCell id="48" value="prints: 'd'" style="shape=parallelogram;perimeter=parallelogramPerimeter;whiteSpace=wrap;html=1;fixedSize=1;" vertex="1" parent="1">
                    <mxGeometry x="260" y="990" width="120" height="60" as="geometry"/>
                </mxCell>
                <mxCell id="49" value="myStringFunction(str: &quot;di&quot;)" style="whiteSpace=wrap;html=1;" vertex="1" parent="1">
                    <mxGeometry x="230" y="370" width="180" height="60" as="geometry"/>
                </mxCell>
                <mxCell id="50" value="myStringFunction(str: &quot;i&quot;)" style="whiteSpace=wrap;html=1;" vertex="1" parent="1">
                    <mxGeometry x="440" y="640" width="180" height="60" as="geometry"/>
                </mxCell>
                <mxCell id="51" value="myStringFunction(str: &quot;i&quot;)" style="whiteSpace=wrap;html=1;" vertex="1" parent="1">
                    <mxGeometry x="620" y="880" width="180" height="60" as="geometry"/>
                </mxCell>
                <mxCell id="52" value="ch = 'i'" style="whiteSpace=wrap;html=1;" vertex="1" parent="1">
                    <mxGeometry x="470" y="880" width="120" height="60" as="geometry"/>
                </mxCell>
                <mxCell id="54" style="edgeStyle=none;html=1;" edge="1" parent="1" source="53" target="48">
                    <mxGeometry relative="1" as="geometry"/>
                </mxCell>
                <mxCell id="53" value="prints: 'i'" style="shape=parallelogram;perimeter=parallelogramPerimeter;whiteSpace=wrap;html=1;fixedSize=1;" vertex="1" parent="1">
                    <mxGeometry x="470" y="990" width="120" height="60" as="geometry"/>
                </mxCell>
                <mxCell id="56" value="false" style="text;html=1;align=center;verticalAlign=middle;resizable=0;points=[];autosize=1;strokeColor=none;fillColor=none;" vertex="1" parent="1">
                    <mxGeometry x="590" y="990" width="50" height="30" as="geometry"/>
                </mxCell>
                <mxCell id="58" value="true" style="text;html=1;align=center;verticalAlign=middle;resizable=0;points=[];autosize=1;strokeColor=none;fillColor=none;" vertex="1" parent="1">
                    <mxGeometry x="530" y="840" width="40" height="30" as="geometry"/>
                </mxCell>
                <mxCell id="59" value="End" style="ellipse;whiteSpace=wrap;html=1;" vertex="1" parent="1">
                    <mxGeometry x="50" y="870" width="115" height="80" as="geometry"/>
                </mxCell>
            </root>
        </mxGraphModel>
    </diagram>
</mxfile>